<svg width="589" height="617" viewBox="0 0 589 617" fill="none" xmlns="http://www.w3.org/2000/svg">
<g filter="url(#filter0_d_115_48)">
<path fill-rule="evenodd" clip-rule="evenodd" d="M564.059 195.765V195.765L565.071 199.481L566.046 203.205L566.983 206.938L567.882 210.678L568.746 214.425L569.573 218.179L570.364 221.939L571.118 225.706L571.836 229.478L572.518 233.256L573.162 237.04L573.767 240.829L574.333 244.623L574.857 248.422L575.337 252.226L575.773 256.034L576.161 259.847L576.498 263.664L576.783 267.484L577.012 271.306L577.183 275.131L577.293 278.958L577.337 282.785L577.314 286.611L577.22 290.435L577.053 294.256L576.808 298.073L576.483 301.883L576.075 305.686L575.582 309.478L575 313.259L574.328 317.026L573.563 320.777L572.703 324.51L571.748 328.222L570.695 331.911L569.543 335.575L568.293 339.211L566.944 342.816L565.496 346.388L563.95 349.926L562.308 353.426L560.57 356.887L558.74 360.306L556.818 363.681L554.808 367.011L552.711 370.293L550.531 373.526L548.269 376.709L545.93 379.839L543.517 382.917L541.032 385.94L538.479 388.908L535.863 391.819L533.187 394.675L530.455 397.473L527.67 400.214L524.839 402.897L521.964 405.524L519.05 408.094L516.102 410.608L513.124 413.066L510.12 415.47L507.096 417.822L504.056 420.121L501.004 422.37L497.946 424.571L494.884 426.726L491.825 428.836L488.772 430.905L485.729 432.934L482.701 434.926L479.691 436.885L476.704 438.812L473.743 440.712L470.811 442.587L467.913 444.441L465.051 446.277L462.228 448.098L459.447 449.908L456.71 451.711L454.02 453.511L451.378 455.31L448.787 457.113L446.247 458.922L443.76 460.743L441.327 462.578L438.948 464.43L436.624 466.304L434.355 468.202L432.141 470.127L429.981 472.083L427.874 474.072L425.82 476.097L423.817 478.16L421.864 480.264L419.958 482.412L418.098 484.603L416.281 486.842L414.506 489.128L412.768 491.462L411.066 493.847L409.396 496.281L407.754 498.766L406.138 501.302L404.544 503.887L402.968 506.521L401.405 509.203L399.851 511.931L398.302 514.701L396.753 517.512L395.199 520.36L393.635 523.241L392.056 526.151L390.458 529.085L388.836 532.039L387.185 535.007L385.501 537.983L383.779 540.961L382.015 543.936L380.205 546.901L378.346 549.85L376.435 552.775L374.467 555.669L372.441 558.527L370.354 561.341L368.203 564.104L365.988 566.809L363.706 569.45L361.357 572.019L358.94 574.511L356.455 576.92L353.902 579.238L351.281 581.461L348.593 583.582L345.84 585.598L343.023 587.504L340.144 589.295L337.206 590.967L334.21 592.519L331.16 593.946L328.058 595.246L324.909 596.417L321.714 597.457L318.477 598.365L315.203 599.14L311.894 599.78L308.554 600.287L305.188 600.659L301.799 600.897L298.391 601.004L294.968 600.978L291.534 600.823L288.093 600.54L284.648 600.132L281.205 599.601L277.765 598.951L274.334 598.185L270.914 597.306L267.508 596.319L264.121 595.228L260.755 594.036L257.414 592.75L254.099 591.374L250.813 589.912L247.559 588.371L244.339 586.755L241.155 585.07L238.008 583.322L234.901 581.517L231.833 579.66L228.807 577.756L225.823 575.813L222.881 573.834L219.982 571.827L217.126 569.797L214.313 567.749L211.543 565.689L208.814 563.622L206.127 561.553L203.48 559.487L200.872 557.429L198.302 555.384L195.769 553.356L193.27 551.349L190.805 549.368L188.371 547.415L185.966 545.494L183.588 543.608L181.235 541.76L178.905 539.953L176.595 538.189L174.304 536.47L172.029 534.797L169.767 533.172L167.516 531.596L165.274 530.07L163.039 528.593L160.808 527.167L158.579 525.791L156.35 524.464L154.12 523.187L151.885 521.957L149.645 520.774L147.398 519.635L145.142 518.538L142.877 517.48L140.602 516.459L138.317 515.47L136.02 514.51L133.712 513.575L131.393 512.663L129.063 511.767L126.723 510.884L124.374 510.011L122.017 509.142L119.653 508.273L117.284 507.401L114.911 506.52L112.536 505.627L110.16 504.718L107.787 503.789L105.418 502.836L103.056 501.856L100.702 500.846L98.3599 499.802L96.0315 498.721L93.7194 497.602L91.426 496.442L89.1537 495.239L86.905 493.991L84.6821 492.697L82.4872 491.356L80.3224 489.967L78.1895 488.53L76.0905 487.044L74.0269 485.51L72.0004 483.928L70.0124 482.297L68.0644 480.619L66.1576 478.895L64.2933 477.124L62.4724 475.309L60.696 473.449L58.9649 471.547L57.2797 469.604L55.641 467.62L54.0493 465.599L52.5049 463.54L51.0079 461.446L49.5585 459.318L48.1566 457.159L46.802 454.969L45.4946 452.751L44.2337 450.507L43.0191 448.238L41.8501 445.947L40.7261 443.634L39.6462 441.303L38.6096 438.953L37.6154 436.588L36.6627 434.21L35.7504 431.818L34.8773 429.417L34.0425 427.005L33.2445 424.587L32.4824 422.162L31.7548 419.732L31.0605 417.298L30.3981 414.862L29.7666 412.424L29.1645 409.986L28.5907 407.549L28.0439 405.114L27.5228 402.681L27.0263 400.251L26.5532 397.825L26.1024 395.404L25.6727 392.987L25.263 390.577L24.8723 388.172L24.4997 385.773L24.1441 383.381L23.8047 380.995L23.4806 378.616L23.171 376.245L22.875 373.881L22.592 371.523L22.3213 369.173L22.0621 366.83L21.8139 364.494L21.5761 362.165L21.3482 359.843L21.1295 357.528L20.9196 355.219L20.7181 352.916L20.5244 350.619L20.3382 348.328L20.159 346.042L19.9863 343.762L19.8198 341.487L19.6591 339.216L19.5035 336.95L19.3527 334.688L19.2061 332.429L19.0632 330.174L18.9235 327.922L18.7864 325.673L18.6512 323.425L18.5174 321.18L18.3842 318.936L18.2511 316.693L18.1174 314.45L17.9823 312.208L17.8452 309.964L17.7055 307.72L17.5625 305.473L17.4155 303.225L17.264 300.973L17.1073 298.717L16.9452 296.457L16.7769 294.191L16.6024 291.92L16.4212 289.642L16.2333 287.356L16.0385 285.062L15.8371 282.759L15.6292 280.446L15.4152 278.123L15.1958 275.788L14.9717 273.441L14.7439 271.082L14.5134 268.71L14.2815 266.324L14.0495 263.924L13.8187 261.51L13.5906 259.081L13.3666 256.638L13.1483 254.179L12.9375 251.705L12.7358 249.216L12.5451 246.711L12.3673 244.192L12.2043 241.658L12.0581 239.11L11.9308 236.548L11.8245 233.972L11.7414 231.384L11.6836 228.784L11.6536 226.174L11.6534 223.553L11.6855 220.923L11.752 218.286L11.8555 215.643L11.998 212.995L12.182 210.344L12.4097 207.691L12.6834 205.039L13.0052 202.388L13.3774 199.742L13.802 197.103L14.2811 194.471L14.8165 191.851L15.4103 189.243L16.0641 186.651L16.7796 184.078L17.5584 181.524L18.4019 178.994L19.3114 176.49L20.2879 174.014L21.3326 171.569L22.4463 169.159L23.6297 166.785L24.8832 164.45L26.2072 162.157L27.6019 159.909L29.0673 157.708L30.6031 155.557L32.209 153.458L33.8844 151.414L35.6285 149.427L37.4404 147.498L39.3188 145.631L41.2625 143.826L43.2699 142.087L45.3393 140.413L47.4689 138.807L49.6565 137.27L51.9 135.804L54.1969 134.407L56.5448 133.083L58.9409 131.83L61.3826 130.649L63.8667 129.541L66.3904 128.504L68.9504 127.538L71.5434 126.642L74.1659 125.815L76.8144 125.056L79.4851 124.362L82.1743 123.731L84.8783 123.161L87.5933 122.649L90.3155 122.191L93.0413 121.785L95.7669 121.426L98.4888 121.11L101.204 120.834L103.908 120.593L106.599 120.383L109.273 120.199L111.927 120.036L114.56 119.889L117.167 119.753L119.749 119.623L122.301 119.495L124.823 119.362L127.314 119.22L129.771 119.063L132.195 118.888L134.584 118.688L136.938 118.46L139.258 118.198L141.543 117.9L143.794 117.559L146.011 117.173L148.196 116.739L150.351 116.253L152.476 115.712L154.573 115.114L156.645 114.457L158.693 113.738L160.719 112.956L162.726 112.109L164.717 111.196L166.693 110.215L168.657 109.167L170.612 108.05L172.562 106.863L174.507 105.608L176.452 104.283L178.4 102.891L180.352 101.43L182.313 99.903L184.284 98.3103L186.27 96.6536L188.272 94.9347L190.294 93.1556L192.337 91.3184L194.406 89.4257L196.502 87.4802L198.628 85.4846L200.786 83.4422L202.979 81.3562L205.209 79.23L207.478 77.0673L209.787 74.872L212.139 72.6478L214.535 70.399L216.977 68.1296L219.466 65.844L222.002 63.5466L224.588 61.2418L227.224 58.9342L229.91 56.6282L232.647 54.3286L235.435 52.0399L238.274 49.7668L241.164 47.5138L244.106 45.2856L247.098 43.0867L250.14 40.9216L253.231 38.7947L256.371 36.7104L259.557 34.6728L262.79 32.6863L266.067 30.7547L269.388 28.882L272.749 27.072L276.151 25.3282L279.59 23.6542L283.065 22.0531L286.574 20.5282L290.115 19.0824L293.685 17.7183L297.282 16.4387L300.903 15.2457L304.547 14.1417L308.211 13.1285L311.892 12.208L315.587 11.3816L319.294 10.6507L323.012 10.0162L326.736 9.47873L330.465 9.03835L334.197 8.69488L337.93 8.44777L341.661 8.29618L345.39 8.23898L349.113 8.27478L352.83 8.402L356.54 8.61885L360.24 8.92336L363.931 9.31344L367.61 9.78691L371.278 10.3414L374.933 10.9747L378.575 11.6843L382.203 12.4679L385.817 13.3231L389.417 14.2475L393.002 15.2389L396.573 16.2951L400.128 17.414L403.669 18.5936L407.195 19.832L410.705 21.1277L414.2 22.479L417.679 23.8847L421.143 25.3436L424.59 26.8547L428.021 28.4174L431.434 30.0311L434.83 31.6955L438.206 33.4107L441.562 35.1766L444.897 36.9935L448.208 38.8615L451.497 40.7808L454.759 42.7514L457.996 44.7734L461.204 46.8469L464.384 48.9719L467.533 51.1484L470.65 53.3764L473.733 55.6558L476.782 57.9864L479.796 60.3679L482.771 62.8002L485.709 65.283L488.606 67.8158L491.462 70.3982L494.276 73.0297L497.046 75.7097L499.772 78.4376L502.452 81.2127L505.085 84.0341L507.671 86.9012L510.208 89.8128L512.697 92.7682L515.135 95.7663L517.523 98.806L519.86 101.886L522.145 105.006L524.379 108.163L526.56 111.358L528.69 114.588L530.767 117.853L532.792 121.15L534.765 124.48L536.686 127.839L538.556 131.228L540.374 134.644L542.141 138.087L543.858 141.554L545.526 145.046L547.144 148.56L548.713 152.094L550.235 155.649L551.711 159.223L553.139 162.814L554.523 166.422L555.862 170.045L557.158 173.683L558.41 177.334L559.621 180.998L560.791 184.674L561.92 188.361L563.009 192.058L564.059 195.765" fill="white"/>
<path d="M564.059 195.765V195.765ZM564.059 195.765L565.071 199.481L566.046 203.205L566.983 206.938L567.882 210.678L568.746 214.425L569.573 218.179L570.364 221.939L571.118 225.706L571.836 229.478L572.518 233.256L573.162 237.04L573.767 240.829L574.333 244.623L574.857 248.422L575.337 252.226L575.773 256.034L576.161 259.847L576.498 263.664L576.783 267.484L577.012 271.306L577.183 275.131L577.293 278.958L577.337 282.785L577.314 286.611L577.22 290.435L577.053 294.256L576.808 298.073L576.483 301.883L576.075 305.686L575.582 309.478L575 313.259L574.328 317.026L573.563 320.777L572.703 324.51L571.748 328.222L570.695 331.911L569.543 335.575L568.293 339.211L566.944 342.816L565.496 346.388L563.95 349.926L562.308 353.426L560.57 356.887L558.74 360.306L556.818 363.681L554.808 367.011L552.711 370.293L550.531 373.526L548.269 376.709L545.93 379.839L543.517 382.917L541.032 385.94L538.479 388.908L535.863 391.819L533.187 394.675L530.455 397.473L527.67 400.214L524.839 402.897L521.964 405.524L519.05 408.094L516.102 410.608L513.124 413.066L510.12 415.47L507.096 417.822L504.056 420.121L501.004 422.37L497.946 424.571L494.884 426.726L491.825 428.836L488.772 430.905L485.729 432.934L482.701 434.926L479.691 436.885L476.704 438.812L473.743 440.712L470.811 442.587L467.913 444.441L465.051 446.277L462.228 448.098L459.447 449.908L456.71 451.711L454.02 453.511L451.378 455.31L448.787 457.113L446.247 458.922L443.76 460.743L441.327 462.578L438.948 464.43L436.624 466.304L434.355 468.202L432.141 470.127L429.981 472.083L427.874 474.072L425.82 476.097L423.817 478.16L421.864 480.264L419.958 482.412L418.098 484.603L416.281 486.842L414.506 489.128L412.768 491.462L411.066 493.847L409.396 496.281L407.754 498.766L406.138 501.302L404.544 503.887L402.968 506.521L401.405 509.203L399.851 511.931L398.302 514.701L396.753 517.512L395.199 520.36L393.635 523.241L392.056 526.151L390.458 529.085L388.836 532.039L387.185 535.007L385.501 537.983L383.779 540.961L382.015 543.936L380.205 546.901L378.346 549.85L376.435 552.775L374.467 555.669L372.441 558.527L370.354 561.341L368.203 564.104L365.988 566.809L363.706 569.45L361.357 572.019L358.94 574.511L356.455 576.92L353.902 579.238L351.281 581.461L348.593 583.582L345.84 585.598L343.023 587.504L340.144 589.295L337.206 590.967L334.21 592.519L331.16 593.946L328.058 595.246L324.909 596.417L321.714 597.457L318.477 598.365L315.203 599.14L311.894 599.78L308.554 600.287L305.188 600.659L301.799 600.897L298.391 601.004L294.968 600.978L291.534 600.823L288.093 600.54L284.648 600.132L281.205 599.601L277.765 598.951L274.334 598.185L270.914 597.306L267.508 596.319L264.121 595.228L260.755 594.036L257.414 592.75L254.099 591.374L250.813 589.912L247.559 588.371L244.339 586.755L241.155 585.07L238.008 583.322L234.901 581.517L231.833 579.66L228.807 577.756L225.823 575.813L222.881 573.834L219.982 571.827L217.126 569.797L214.313 567.749L211.543 565.689L208.814 563.622L206.127 561.553L203.48 559.487L200.872 557.429L198.302 555.384L195.769 553.356L193.27 551.349L190.805 549.368L188.371 547.415L185.966 545.494L183.588 543.608L181.235 541.76L178.905 539.953L176.595 538.189L174.304 536.47L172.029 534.797L169.767 533.172L167.516 531.596L165.274 530.07L163.039 528.593L160.808 527.167L158.579 525.791L156.35 524.464L154.12 523.187L151.885 521.957L149.645 520.774L147.398 519.635L145.142 518.538L142.877 517.48L140.602 516.459L138.317 515.47L136.02 514.51L133.712 513.575L131.393 512.663L129.063 511.767L126.723 510.884L124.374 510.011L122.017 509.142L119.653 508.273L117.284 507.401L114.911 506.52L112.536 505.627L110.16 504.718L107.787 503.789L105.418 502.836L103.056 501.856L100.702 500.846L98.3599 499.802L96.0315 498.721L93.7194 497.602L91.426 496.442L89.1537 495.239L86.905 493.991L84.6821 492.697L82.4872 491.356L80.3224 489.967L78.1895 488.53L76.0905 487.044L74.0269 485.51L72.0004 483.928L70.0124 482.297L68.0644 480.619L66.1576 478.895L64.2933 477.124L62.4724 475.309L60.696 473.449L58.9649 471.547L57.2797 469.604L55.641 467.62L54.0493 465.599L52.5049 463.54L51.0079 461.446L49.5585 459.318L48.1566 457.159L46.802 454.969L45.4946 452.751L44.2337 450.507L43.0191 448.238L41.8501 445.947L40.7261 443.634L39.6462 441.303L38.6096 438.953L37.6154 436.588L36.6627 434.21L35.7504 431.818L34.8773 429.417L34.0425 427.005L33.2445 424.587L32.4824 422.162L31.7548 419.732L31.0605 417.298L30.3981 414.862L29.7666 412.424L29.1645 409.986L28.5907 407.549L28.0439 405.114L27.5228 402.681L27.0263 400.251L26.5532 397.825L26.1024 395.404L25.6727 392.987L25.263 390.577L24.8723 388.172L24.4997 385.773L24.1441 383.381L23.8047 380.995L23.4806 378.616L23.171 376.245L22.875 373.881L22.592 371.523L22.3213 369.173L22.0621 366.83L21.8139 364.494L21.5761 362.165L21.3482 359.843L21.1295 357.528L20.9196 355.219L20.7181 352.916L20.5244 350.619L20.3382 348.328L20.159 346.042L19.9863 343.762L19.8198 341.487L19.6591 339.216L19.5035 336.95L19.3527 334.688L19.2061 332.429L19.0632 330.174L18.9235 327.922L18.7864 325.673L18.6512 323.425L18.5174 321.18L18.3842 318.936L18.2511 316.693L18.1174 314.45L17.9823 312.208L17.8452 309.964L17.7055 307.72L17.5625 305.473L17.4155 303.225L17.264 300.973L17.1073 298.717L16.9452 296.457L16.7769 294.191L16.6024 291.92L16.4212 289.642L16.2333 287.356L16.0385 285.062L15.8371 282.759L15.6292 280.446L15.4152 278.123L15.1958 275.788L14.9717 273.441L14.7439 271.082L14.5134 268.71L14.2815 266.324L14.0495 263.924L13.8187 261.51L13.5906 259.081L13.3666 256.638L13.1483 254.179L12.9375 251.705L12.7358 249.216L12.5451 246.711L12.3673 244.192L12.2043 241.658L12.0581 239.11L11.9308 236.548L11.8245 233.972L11.7414 231.384L11.6836 228.784L11.6536 226.174L11.6534 223.553L11.6855 220.923L11.752 218.286L11.8555 215.643L11.998 212.995L12.182 210.344L12.4097 207.691L12.6834 205.039L13.0052 202.388L13.3774 199.742L13.802 197.103L14.2811 194.471L14.8165 191.851L15.4103 189.243L16.0641 186.651L16.7796 184.078L17.5584 181.524L18.4019 178.994L19.3114 176.49L20.2879 174.014L21.3326 171.569L22.4463 169.159L23.6297 166.785L24.8832 164.45L26.2072 162.157L27.6019 159.909L29.0673 157.708L30.6031 155.557L32.209 153.458L33.8844 151.414L35.6285 149.427L37.4404 147.498L39.3188 145.631L41.2625 143.826L43.2699 142.087L45.3393 140.413L47.4689 138.807L49.6565 137.27L51.9 135.804L54.1969 134.407L56.5448 133.083L58.9409 131.83L61.3826 130.649L63.8667 129.541L66.3904 128.504L68.9504 127.538L71.5434 126.642L74.1659 125.815L76.8144 125.056L79.4851 124.362L82.1743 123.731L84.8783 123.161L87.5933 122.649L90.3155 122.191L93.0413 121.785L95.7669 121.426L98.4888 121.11L101.204 120.834L103.908 120.593L106.599 120.383L109.273 120.199L111.927 120.036L114.56 119.889L117.167 119.753L119.749 119.623L122.301 119.495L124.823 119.362L127.314 119.22L129.771 119.063L132.195 118.888L134.584 118.688L136.938 118.46L139.258 118.198L141.543 117.9L143.794 117.559L146.011 117.173L148.196 116.739L150.351 116.253L152.476 115.712L154.573 115.114L156.645 114.457L158.693 113.738L160.719 112.956L162.726 112.109L164.717 111.196L166.693 110.215L168.657 109.167L170.612 108.05L172.562 106.863L174.507 105.608L176.452 104.283L178.4 102.891L180.352 101.43L182.313 99.903L184.284 98.3103L186.27 96.6536L188.272 94.9347L190.294 93.1556L192.337 91.3184L194.406 89.4257L196.502 87.4802L198.628 85.4846L200.786 83.4422L202.979 81.3562L205.209 79.23L207.478 77.0673L209.787 74.872L212.139 72.6478L214.535 70.399L216.977 68.1296L219.466 65.844L222.002 63.5466L224.588 61.2418L227.224 58.9342L229.91 56.6282L232.647 54.3286L235.435 52.0399L238.274 49.7668L241.164 47.5138L244.106 45.2856L247.098 43.0867L250.14 40.9216L253.231 38.7947L256.371 36.7104L259.557 34.6728L262.79 32.6863L266.067 30.7547L269.388 28.882L272.749 27.072L276.151 25.3282L279.59 23.6542L283.065 22.0531L286.574 20.5282L290.115 19.0824L293.685 17.7183L297.282 16.4387L300.903 15.2457L304.547 14.1417L308.211 13.1285L311.892 12.208L315.587 11.3816L319.294 10.6507L323.012 10.0162L326.736 9.47873L330.465 9.03835L334.197 8.69488L337.93 8.44777L341.661 8.29618L345.39 8.23898L349.113 8.27478L352.83 8.402L356.54 8.61885L360.24 8.92336L363.931 9.31344L367.61 9.78691L371.278 10.3414L374.933 10.9747L378.575 11.6843L382.203 12.4679L385.817 13.3231L389.417 14.2475L393.002 15.2389L396.573 16.2951L400.128 17.414L403.669 18.5936L407.195 19.832L410.705 21.1277L414.2 22.479L417.679 23.8847L421.143 25.3436L424.59 26.8547L428.021 28.4174L431.434 30.0311L434.83 31.6955L438.206 33.4107L441.562 35.1766L444.897 36.9935L448.208 38.8615L451.497 40.7808L454.759 42.7514L457.996 44.7734L461.204 46.8469L464.384 48.9719L467.533 51.1484L470.65 53.3764L473.733 55.6558L476.782 57.9864L479.796 60.3679L482.771 62.8002L485.709 65.283L488.606 67.8158L491.462 70.3982L494.276 73.0297L497.046 75.7097L499.772 78.4376L502.452 81.2127L505.085 84.0341L507.671 86.9012L510.208 89.8128L512.697 92.7682L515.135 95.7663L517.523 98.806L519.86 101.886L522.145 105.006L524.379 108.163L526.56 111.358L528.69 114.588L530.767 117.853L532.792 121.15L534.765 124.48L536.686 127.839L538.556 131.228L540.374 134.644L542.141 138.087L543.858 141.554L545.526 145.046L547.144 148.56L548.713 152.094L550.235 155.649L551.711 159.223L553.139 162.814L554.523 166.422L555.862 170.045L557.158 173.683L558.41 177.334L559.621 180.998L560.791 184.674L561.92 188.361L563.009 192.058L564.059 195.765" stroke="#046A38" stroke-width="3"/>
</g>
<defs>
<filter id="filter0_d_115_48" x="0.152344" y="0.738281" width="588.684" height="615.766" filterUnits="userSpaceOnUse" color-interpolation-filters="sRGB">
<feFlood flood-opacity="0" result="BackgroundImageFix"/>
<feColorMatrix in="SourceAlpha" type="matrix" values="0 0 0 0 0 0 0 0 0 0 0 0 0 0 0 0 0 0 127 0" result="hardAlpha"/>
<feOffset dy="4"/>
<feGaussianBlur stdDeviation="5"/>
<feComposite in2="hardAlpha" operator="out"/>
<feColorMatrix type="matrix" values="0 0 0 0 0 0 0 0 0 0 0 0 0 0 0 0 0 0 0.25 0"/>
<feBlend mode="normal" in2="BackgroundImageFix" result="effect1_dropShadow_115_48"/>
<feBlend mode="normal" in="SourceGraphic" in2="effect1_dropShadow_115_48" result="shape"/>
</filter>
</defs>
</svg>
